<?xml version="1.0" standalone="no"?>
<!DOCTYPE svg PUBLIC "-//W3C//DTD SVG 20010904//EN"
 "http://www.w3.org/TR/2001/REC-SVG-20010904/DTD/svg10.dtd">
<svg version="1.0" xmlns="http://www.w3.org/2000/svg"
 width="1024.000000pt" height="1024.000000pt" viewBox="0 0 1024.000000 1024.000000"
 preserveAspectRatio="xMidYMid meet">
<metadata>
Created by potrace 1.11, written by Peter Selinger 2001-2013
</metadata>
<g transform="translate(0.000000,1024.000000) scale(0.100000,-0.100000)"
fill="#000000" stroke="none">
<path d="M0 5120 l0 -5120 5120 0 5120 0 0 5120 0 5120 -5120 0 -5120 0 0
-5120z m6325 4016 c33 -9 103 -37 154 -62 170 -84 314 -251 377 -439 36 -108
45 -276 19 -391 -98 -445 -556 -705 -986 -559 -110 38 -204 98 -295 190 -68
68 -90 99 -133 186 -67 135 -84 216 -79 374 4 101 9 134 35 208 44 124 85 189
188 292 69 69 109 100 170 132 87 44 159 70 233 83 67 13 246 4 317 -14z
m-1694 -1520 c134 -31 1326 -390 1401 -422 178 -76 357 -202 496 -349 162
-171 191 -221 543 -942 l138 -283 378 0 c303 0 390 -3 436 -15 185 -48 324
-187 372 -372 70 -267 -114 -556 -391 -613 -36 -8 -221 -10 -571 -8 l-518 3
-95 33 c-168 59 -312 167 -396 298 -22 33 -113 211 -204 397 -91 185 -167 337
-170 337 -3 0 -115 -275 -249 -611 -205 -513 -241 -613 -230 -623 8 -7 223
-136 479 -286 256 -150 485 -287 510 -304 155 -104 274 -282 315 -470 14 -60
16 -106 12 -195 l-5 -116 -266 -850 c-147 -467 -279 -872 -294 -899 -37 -67
-127 -155 -199 -194 -251 -133 -565 -34 -692 219 -39 79 -54 153 -49 253 3 72
28 157 227 794 123 392 222 714 220 717 -3 2 -310 184 -683 404 -373 221 -706
421 -740 445 -77 55 -179 162 -235 245 -167 246 -218 563 -136 844 13 45 159
398 324 784 268 625 309 723 298 723 -1 0 -56 16 -122 36 -171 51 -264 49
-400 -9 -27 -12 -205 -141 -400 -290 -378 -290 -440 -329 -562 -347 -240 -37
-481 115 -553 348 -29 92 -27 226 3 312 29 80 66 139 121 194 52 51 688 538
786 601 154 101 359 180 550 215 87 16 138 19 295 15 120 -2 215 -9 256 -19z
m-864 -3707 c130 -191 283 -330 516 -468 59 -35 109 -67 112 -71 6 -9 -141
-349 -178 -413 -100 -169 -272 -296 -471 -347 -76 -19 -110 -20 -781 -20 -771
0 -746 -2 -867 62 -69 36 -166 135 -201 203 -77 152 -77 335 1 479 57 106 180
205 307 247 30 10 180 14 619 19 l579 5 115 268 115 268 42 -79 c23 -43 65
-112 92 -153z"/>
</g>
</svg>
